<?xml version="1.0" encoding="UTF-8"?>
<svg width="448px" height="448px" viewBox="0 0 448 448" version="1.1" xmlns="http://www.w3.org/2000/svg" xmlns:xlink="http://www.w3.org/1999/xlink">
    <!-- Generator: Sketch 49.3 (51167) - http://www.bohemiancoding.com/sketch -->
    <title>Shape</title>
    <desc>Created with Sketch.</desc>
    <defs></defs>
    <g id="Page-1" stroke="none" stroke-width="1" fill="none" fill-rule="evenodd">
        <g id="imdb" fill="#4a4a4a" fill-rule="nonzero">
            <path d="M350.5,256.7 C350.5,262.1 352.1,271.1 344.3,271.1 C342.7,271.1 341.3,270.3 340.5,268.7 C338.3,263.6 339.4,224.6 339.4,224 C339.4,220.2 338.3,211.3 344.3,211.3 C351.6,211.3 350.5,218.6 350.5,224 L350.5,256.7 Z M265,197.9 C265,188.2 266.6,181.9 254.7,181.9 L254.7,265.6 C266.9,265.9 265,256.9 265,247.2 L265,197.9 Z M448,48 L448,400 C448,426.5 426.5,448 400,448 L48,448 C21.5,448 0,426.5 0,400 L0,48 C0,21.5 21.5,0 48,0 L400,0 C426.5,0 448,21.5 448,48 Z M21.3,196.8 C21.2,196.9 21.1,197.1 21,197.2 L21.3,197.2 L21.3,196.8 Z M97,160 L64,160 L64,287.8 L97,287.8 L97,160 Z M210.3,160 L167.2,160 L159.6,219.9 C156.9,199.9 154.2,179.8 150.9,160 L108.1,160 L108.1,287.8 L137.1,287.8 L137.1,203.3 L149.3,287.8 L169.9,287.8 L181.5,201.4 L181.5,287.8 L210.2,287.8 L210.2,160 L210.3,160 Z M296.6,205.3 C296.6,197.2 296.9,188.5 295.2,180.9 C290.9,158.4 263.8,160 246.2,160 L221.6,160 L221.6,287.8 C307.7,287.9 296.6,293.8 296.6,205.3 Z M382.5,222.6 C382.5,205.3 381.7,192.5 360.3,192.5 C351.4,192.5 345.4,195.2 339.4,201.7 L339.4,160 L307.7,160 L307.7,287.8 L337.5,287.8 L339.4,279.7 C345.1,286.5 351.3,289.5 360.3,289.5 C380.1,289.5 382.5,274.3 382.5,258.6 L382.5,222.6 Z" id="Shape"></path>
        </g>
    </g>
</svg>